<?xml version="1.0" encoding="utf-8"?>
<!-- Generator: Adobe Illustrator 27.5.0, SVG Export Plug-In . SVG Version: 6.00 Build 0)  -->
<svg version="1.1" id="Layer_1" xmlns="http://www.w3.org/2000/svg" xmlns:xlink="http://www.w3.org/1999/xlink" x="0px" y="0px"
	 viewBox="0 0 115.6 25.7" style="enable-background:new 0 0 115.6 25.7;" xml:space="preserve">
<style type="text/css">
	.st0{fill:#FFFFFF;}
	.st1{fill:#ED1C24;}
</style>
<g>
	<path class="st0" d="M99.6,9c0,0-0.1-0.2,0.1-0.4l-1.3,0.4c0,0,0.2,0.1,0.2,0.3L99.6,9z"/>
	<g>
		<circle class="st1" cx="103.5" cy="11.9" r="12.1"/>
		<g>
			<path d="M109.5,13.1c0.2-0.1,0.6-0.1,1,0c0.7,0.1,1.3,0.1,1.7-0.3c0.3-0.4,0.2-1.9-2.2-3.3c0,0-0.1-2.8-2.3-5
				c-0.1-0.1-0.2,0-0.3,0.1c-0.1,0.3-0.3,1-0.1,2.2c0,0-0.2,0.1-0.7-0.3s-2.2-2-2.2-2v3.1c0,0,1.5,1.3,3.1,2.2c0,0-0.5,0.3-0.4,1.3
				c-1-0.8-1.8-1.2-2.8-1.6l0.2,4.1c5.2,2.5,7.9,5.6,8.3,5.1C113.4,17.8,111.8,15.3,109.5,13.1z M110,10.8c0.3,0,0.5,0.2,0.5,0.5
				s-0.2,0.5-0.5,0.5s-0.5-0.2-0.5-0.5S109.8,10.8,110,10.8z"/>
			<path class="st0" d="M104,1.1c-0.6,0-1.2,3.3-1.3,7.9c-1.2-0.2-2.1-0.2-2.8-0.1l-0.1-0.3c0.2-0.2,0.3-0.4,0.2-0.7
				c-0.1-0.4-0.6-0.6-1.1-0.4c-0.5,0.1-0.8,0.6-0.7,0.9c0.1,0.2,0.3,0.4,0.5,0.4l0.1,0.2c-1.8,0.7-1.4,2.4-1.4,2.4
				c-2.4-0.1-4.5,1.1-2.9,1.4c1.7,0.3,3,1.2,4.6,1.2s1.3-1.4,1.3-1.4c1,0,1.6,0.1,2.1,0.2c0.1,5.5,0.7,9.8,1.4,9.8
				c0.8,0,1.4-4.8,1.4-10.8C105.3,5.9,104.7,1.1,104,1.1z"/>
		</g>
	</g>
	<g>
		<path d="M0.5,17.3c0-0.1,0.1-0.2,0.2-0.1C2.1,17.7,3,18,4,18c2.2,0,3.6-1.2,3.6-3.1c0-1.4-0.8-2.3-2.7-3.2l-1-0.5
			C1.2,9.8,0,8.4,0,6.1c0-3,2.2-5,5.6-5c1.3,0,2.5,0.2,3.7,0.6c0.1,0,0.1,0.1,0.1,0.2l-0.3,2C9.2,4,9.1,4,8.9,4
			C7.7,3.5,6.8,3.3,5.8,3.3c-1.9,0-3.2,1-3.2,2.5c0,1.3,0.7,2,2.9,3.2l1,0.5c3,1.6,3.9,2.8,3.9,5.2c0,3.3-2.4,5.6-6,5.6
			c-1.4,0-2.7-0.2-3.9-0.7c-0.1,0-0.1-0.1-0.1-0.2L0.5,17.3z"/>
		<path d="M21.7,19.9c-0.1,0-0.2-0.1-0.2-0.2c0-0.4,0-0.6,0-0.9c0-0.2,0-0.3,0-0.6c0-0.2-0.2-0.2-0.3-0.1c-1,1.3-2.2,2-4,2
			c-2.7,0-4.5-1.6-4.5-4.1c0-2.8,2.5-4.4,6.8-4.4c0.5,0,0.9,0,1.6,0.1c0.1,0,0.2-0.1,0.2-0.2c-0.1-2.2-1.1-3.2-3.2-3.2
			c-1.3,0-2.4,0.3-3.6,1.2c-0.1,0.1-0.3,0-0.3-0.1L14,7.5c0-0.1,0-0.1,0.1-0.2c1.4-0.8,2.7-1.2,4.3-1.2c2.3,0,3.9,0.9,4.7,2.5
			c0.4,0.9,0.5,1.8,0.5,3.9v2.8c0,2,0,3.4,0.1,4.4c0,0.1-0.1,0.2-0.2,0.2L21.7,19.9L21.7,19.9z M17.7,18.1c1.4,0,2.7-0.8,3.2-2
			c0.3-0.6,0.4-1.2,0.4-2.5c0-0.1-0.1-0.2-0.2-0.2c-0.4,0-0.7-0.1-1.2-0.1c-3.2,0-4.8,0.9-4.8,2.6C15.2,17.2,16.2,18.1,17.7,18.1z"
			/>
		<path d="M32.3,23.6c1.8,0,3.1-0.7,3.7-2c0.3-0.7,0.4-1.4,0.5-2.8c0-0.3,0-0.4,0-0.6c0-0.2-0.2-0.2-0.3-0.1c-1,1.2-2.3,1.8-4,1.8
			c-3.4,0-5.7-2.7-5.7-6.7c0-4.2,2.3-7,5.7-7c2,0,3.7,1,4.4,2.5c0-0.2,0-0.3,0-0.3c0-0.2,0-0.5,0-0.8V6.5c0-0.1,0.1-0.2,0.2-0.2h1.9
			c0.1,0,0.2,0.1,0.2,0.2v11c0,2.6-0.1,3.6-0.4,4.7c-0.7,2.2-2.8,3.5-5.9,3.5c-1.7,0-3.1-0.3-4.8-0.9c-0.1,0-0.1-0.1-0.1-0.2l0.2-2
			c0-0.1,0.1-0.2,0.2-0.1C29.5,23.2,30.9,23.6,32.3,23.6z M32.6,17.8c2.2,0,3.8-2,3.8-4.7c0-2.7-1.6-4.8-3.7-4.8
			c-2.2,0-3.7,2-3.7,4.9C29,15.9,30.5,17.8,32.6,17.8z"/>
		<path d="M50.6,19.9c-0.1,0-0.2-0.1-0.2-0.2c0-0.4,0-0.6,0-0.9c0-0.2,0-0.3,0-0.6c0-0.2-0.2-0.2-0.3-0.1c-1,1.3-2.2,2-4,2
			c-2.7,0-4.5-1.6-4.5-4.1c0-2.8,2.5-4.4,6.8-4.4c0.5,0,0.9,0,1.6,0.1c0.1,0,0.2-0.1,0.2-0.2C50,9.3,49,8.3,46.9,8.3
			c-1.3,0-2.4,0.3-3.6,1.2c-0.1,0.1-0.3,0-0.3-0.1l-0.1-1.8c0-0.1,0-0.1,0.1-0.2c1.4-0.8,2.7-1.2,4.3-1.2c2.3,0,3.9,0.9,4.7,2.5
			c0.4,0.9,0.5,1.8,0.5,3.9v2.8c0,2,0.1,3.4,0.1,4.4c0,0.1-0.1,0.2-0.2,0.2L50.6,19.9L50.6,19.9z M46.6,18.1c1.4,0,2.7-0.8,3.2-2
			c0.3-0.6,0.4-1.2,0.4-2.5c0-0.1-0.1-0.2-0.2-0.2c-0.4,0-0.7-0.1-1.2-0.1c-3.2,0-4.8,0.9-4.8,2.6C44.1,17.2,45.1,18.1,46.6,18.1z"
			/>
		<path d="M56.4,0h2.1c0.1,0,0.2,0.1,0.2,0.2v19.5c0,0.1-0.1,0.2-0.2,0.2h-2.1c-0.1,0-0.2-0.1-0.2-0.2V0.2C56.3,0.1,56.3,0,56.4,0z"
			/>
		<path d="M70.6,19.9c-0.1,0-0.2-0.1-0.2-0.2c0-0.4,0-0.6,0-0.9c0-0.2,0-0.3,0-0.6c0-0.2-0.2-0.2-0.3-0.1c-1,1.3-2.2,2-4,2
			c-2.7,0-4.5-1.6-4.5-4.1c0-2.8,2.4-4.4,6.8-4.4c0.5,0,0.9,0,1.6,0.1c0.1,0,0.2-0.1,0.2-0.2c-0.1-2.2-1.1-3.2-3.2-3.2
			c-1.3,0-2.4,0.3-3.6,1.2c-0.1,0.1-0.3,0-0.3-0.1l-0.1-1.8c0-0.1,0-0.1,0.1-0.2c1.4-0.8,2.7-1.2,4.3-1.2c2.3,0,3.9,0.9,4.7,2.5
			c0.4,0.9,0.5,1.8,0.5,3.9v2.8c0,2,0.1,3.4,0.1,4.4c0,0.1-0.1,0.2-0.2,0.2H70.6z M66.6,18.1c1.4,0,2.7-0.8,3.2-2
			c0.3-0.6,0.4-1.2,0.4-2.5c0-0.1-0.1-0.2-0.2-0.2c-0.4,0-0.7-0.1-1.2-0.1c-3.2,0-4.8,0.9-4.8,2.6C64.1,17.2,65.1,18.1,66.6,18.1z"
			/>
		<path d="M76.4,0h2.1c0.1,0,0.2,0.1,0.2,0.2v7c0,0.6,0,0.6,0,1.1c0,0.1,0,0.2-0.1,0.5C79.2,7.1,81,6.1,83,6.1
			c3.4,0,5.6,2.7,5.6,6.9c0,4.3-2.2,7.1-5.6,7.1c-1.8,0-3.3-0.7-4.2-2c-0.1-0.1-0.3-0.1-0.3,0.1v1.5c0,0.1-0.1,0.2-0.2,0.2h-2
			c-0.1,0-0.2-0.1-0.2-0.2V0.2C76.2,0.1,76.3,0,76.4,0z M82.4,17.9c2.1,0,3.6-2,3.6-4.8c0-2.8-1.4-4.9-3.5-4.9c-2.3,0-3.9,2-3.9,4.9
			C78.7,15.9,80.3,17.9,82.4,17.9z"/>
	</g>
</g>
</svg>
